<?xml version="1.0" encoding="utf-8"?>
<!-- Generator: Adobe Illustrator 21.0.2, SVG Export Plug-In . SVG Version: 6.00 Build 0)  -->
<svg version="1.1" id="adobeNews_72_lt-ou" xmlns="http://www.w3.org/2000/svg" xmlns:xlink="http://www.w3.org/1999/xlink" x="0px"
	 y="0px" viewBox="0 0 72 72" style="enable-background:new 0 0 72 72;" xml:space="preserve">
<style type="text/css">
	.st0{fill:#D5D5D5;}
</style>
<title>Stock-dark-bkgd</title>
<g>
	<path class="st0" d="M43.8,14.6c11.8,0,21.3,9.6,21.3,21.4s-9.5,21.4-21.3,21.4c-3.6,0-15.7,0-19,0c-9.9,0-17.9-8.1-17.9-18
		s8-17.9,17.9-17.9c1,0,2,0.1,3,0.2C31.7,17.4,37.4,14.6,43.8,14.6 M43.8,13.6c-3.2,0-6.4,0.7-9.3,2c-2.7,1.2-5,2.9-7,5.1
		c-0.9-0.1-1.8-0.2-2.7-0.2c-2.5,0-5,0.5-7.3,1.5c-2.2,0.9-4.2,2.3-6,4c-1.7,1.7-3.1,3.7-4,6c-1,2.3-1.5,4.8-1.5,7.3
		c0,2.5,0.5,5,1.5,7.3c0.9,2.2,2.3,4.3,4,6c1.7,1.7,3.7,3.2,6,4.1c2.3,1,4.8,1.6,7.3,1.6h19c3,0,5.9-0.7,8.7-1.8
		c2.6-1.1,5-2.8,7.1-4.8c2-2,3.6-4.4,4.8-7.1c1.2-2.7,1.7-5.7,1.7-8.7c0-3-0.6-5.9-1.7-8.7c-1.1-2.7-2.7-5-4.8-7.1
		c-2-2-4.4-3.7-7.1-4.8C49.7,14.2,46.8,13.6,43.8,13.6L43.8,13.6z"/>
	<path class="st0" d="M22.3,40c-0.6-0.6-0.6-1.7,0-2.3c0.6-0.6,1.7-0.6,2.3,0l8.6,8.7c2.7,2.7,6.4,4.3,10.5,4.3
		c8.2,0,14.8-6.6,14.8-14.8s-6.6-14.8-14.8-14.8c-3.5,0-6.7,1.2-9.2,3.2c-1-0.6-2-1.2-3.1-1.6c3.2-3,7.6-4.9,12.3-4.9
		c10,0,18.1,8.1,18.1,18.1s-8.1,18.1-18.1,18.1c-5,0-9.5-2-12.8-5.3L22.3,40z"/>
	<path class="st0" d="M32.2,30.8c-2-1.7-4.6-2.8-7.4-2.8c-6.3,0-11.3,5.1-11.3,11.3c0,6.3,5.1,11.3,11.3,11.3l3.6,0.1
		c1.2,1.2,2.5,2.4,4,3.4h-7.6c-8.1,0-14.6-6.6-14.6-14.7s6.5-14.6,14.6-14.6c3.8,0,7.2,1.4,9.8,3.7l6.6,6.7c0.6,0.6,0.6,1.7,0,2.3
		c-0.6,0.6-1.7,0.6-2.3,0L32.2,30.8z"/>
</g>
</svg>
