<?xml version="1.0" encoding="UTF-8"?>
<!-- Generator: Adobe Illustrator 21.0.2, SVG Export Plug-In . SVG Version: 6.00 Build 0)  -->
<svg version="1.1" id="adobeNews_72_lt-ou" xmlns="http://www.w3.org/2000/svg" xmlns:xlink="http://www.w3.org/1999/xlink" x="0px" y="0px" viewBox="0 0 72 72" style="enable-background:new 0 0 72 72;" xml:space="preserve">
<style type="text/css">
	.st0{fill:#CDCDCD;}
</style>
<title>Stock-dark-bkgd</title>
<g>
	<path class="st0" d="M16.2,27.6c0-0.6-0.4-1-1-1h-5c-0.6,0-1,0.4-1,1s0.4,1,1,1h5C15.7,28.6,16.2,28.2,16.2,27.6z"/>
	<path class="st0" d="M67.2,24.6c-0.6,0-1,0.4-1,1v4.7c-0.7,0.7-3.8,1.8-9.1,2.4c-0.6,0-1,0.5-1,1c0,0.6,0.5,1,1,1   c0.1,0,0.1,0,0.2,0c6.4-0.7,10.9-2.3,10.9-4.1v-5C68.2,25.1,67.7,24.6,67.2,24.6z"/>
	<path class="st0" d="M67.2,33.6c-0.6,0-1,0.4-1,1v4.7c-0.7,0.7-3.8,1.8-9.1,2.4c-0.6,0-1,0.5-1,1c0,0.6,0.5,1,1,1   c0.1,0,0.1,0,0.2,0c6.4-0.7,10.9-2.3,10.9-4.1v-5C68.2,34.1,67.7,33.6,67.2,33.6z"/>
	<path class="st0" d="M50.2,8.1c-9.9,0-18,2-18,4.5v7c0,0.6,0.4,1,1,1s1-0.4,1-1v-4.9c3,1.5,9,2.4,16,2.4s13-1,16-2.4v6.7   c-1,1-6.6,2.8-16,2.8c-0.3,0-0.7,0-1,0c-0.6,0-1,0.4-1,1s0.4,1,1,1c0.3,0,0.7,0,1,0c9.9,0,18-2,18-4.5v-9   C68.2,10.2,60.1,8.1,50.2,8.1z M65.4,12.9c-2,1-7.2,2.3-15.3,2.3s-13.3-1.3-15.3-2.3c-0.1-0.1-0.2-0.2-0.1-0.3c0,0,0.1-0.1,0.1-0.1   c2-1,7.2-2.3,15.3-2.3s13.3,1.3,15.3,2.3c0.1,0.1,0.2,0.2,0.1,0.3C65.5,12.8,65.5,12.8,65.4,12.9z"/>
	<path class="st0" d="M33.2,33.6c6.1,0,11,4.9,11,11s-4.9,11-11,11s-11-4.9-11-11C22.2,38.6,27.1,33.7,33.2,33.6z M33.2,31.6   c-7.2,0-13,5.8-13,13s5.8,13,13,13s13-5.8,13-13S40.3,31.6,33.2,31.6z"/>
	<path class="st0" d="M37.7,24.6c0.5,0,1,0.2,1.3,0.5l6.3,5.5c0.7,0.6,1.7,1,2.6,1h2.2c1.1,0,2,0.9,2,2v25c0,1.1-0.9,2-2,2h-42   c-1.1,0-2-0.9-2-2v-25c0-1.1,0.9-2,2-2h10.3c1,0,1.9-0.3,2.6-1l6.4-5.5c0.4-0.3,0.8-0.5,1.3-0.5H37.7z M37.7,22.6h-9   c-1,0-1.9,0.3-2.6,1l-6.4,5.5c-0.4,0.3-0.8,0.5-1.3,0.5H8.2c-2.2,0-4,1.8-4,4v25c0,2.2,1.8,4,4,4h42c2.2,0,4-1.8,4-4v-25   c0-2.2-1.8-4-4-4h-2.2c-0.5,0-1-0.2-1.3-0.5l-6.3-5.5C39.6,23,38.6,22.6,37.7,22.6z"/>
</g>
</svg>