<?xml version="1.0" encoding="utf-8"?>
<!-- Generator: Adobe Illustrator 21.0.2, SVG Export Plug-In . SVG Version: 6.00 Build 0)  -->
<svg version="1.1" id="Layer_1" xmlns="http://www.w3.org/2000/svg" xmlns:xlink="http://www.w3.org/1999/xlink" x="0px" y="0px"
	 viewBox="0 0 60 60" style="enable-background:new 0 0 60 60;" xml:space="preserve">
<style type="text/css">
	.st0{fill:#D5D5D5;}
</style>
<title>ps_bw_60</title>
<path class="st0" d="M0,0v58h60V0H0z M3,3h54v52H3V3z"/>
<path class="st0" d="M14.8,13.7c0-0.2,0.4-0.3,0.6-0.3c1.6-0.1,4-0.1,6.4-0.1c6.9,0,9.6,3.8,9.6,8.7c0,6.4-4.6,9.1-10.3,9.1
	c-1,0-1.3,0-1.9,0v9.6c0,0.2-0.1,0.3-0.3,0.3H15c-0.2,0-0.3-0.1-0.3-0.3L14.8,13.7z M19.2,27c0.6,0,1,0,2,0c2.9,0,5.7-1,5.7-5
	c0-3.2-2-4.8-5.3-4.8c-1,0-1.9,0-2.4,0.1L19.2,27z M40.7,24c-2,0-2.6,1-2.6,1.8s0.5,1.5,3.1,2.9c3.9,1.9,5.2,3.7,5.2,6.4
	c0,4-3,6.2-7.2,6.2c-1.8,0.1-3.5-0.3-5.2-1.1c-0.2-0.1-0.2-0.2-0.2-0.4v-3.7c0-0.2,0.1-0.3,0.3-0.2c1.5,1,3.2,1.5,5,1.5
	c2,0,2.8-0.8,2.8-1.9c0-0.9-0.6-1.7-3.1-3c-3.5-1.7-5-3.4-5-6.3c0-3.2,2.5-5.9,6.9-5.9c1.5-0.1,3,0.2,4.5,0.7
	c0.2,0.1,0.3,0.3,0.2,0.5v3.4c0,0.2-0.1,0.3-0.4,0.2C43.7,24.4,42.2,24,40.7,24z"/>
</svg>
